<svg width="400" height="400" viewBox="0 0 400 400" xmlns="http://www.w3.org/2000/svg">
  <!-- University shield shapes -->
  <g fill="#FFFFFF" opacity="0.15">
    <!-- Shield outline -->
    <path d="M100,50 C100,50 150,30 200,50 C250,30 300,50 300,50 L300,150 C300,200 250,250 200,270 C150,250 100,200 100,150 L100,50 Z" />
    
    <!-- Book symbol -->
    <path d="M180,120 L220,120 L220,160 L200,150 L180,160 Z" />
    
    <!-- Laurel wreath left -->
    <path d="M160,180 C140,160 150,140 160,130 C170,140 180,160 160,180 Z" />
    
    <!-- Laurel wreath right -->
    <path d="M240,180 C260,160 250,140 240,130 C230,140 220,160 240,180 Z" />
  </g>
  
  <!-- Graduation caps -->
  <g fill="#FFFFFF" opacity="0.1">
    <path d="M50,50 L70,40 L90,50 L70,60 Z" />
    <path d="M350,50 L370,40 L390,50 L370,60 Z" />
    <path d="M50,350 L70,340 L90,350 L70,360 Z" />
    <path d="M350,350 L370,340 L390,350 L370,360 Z" />
  </g>
  
  <!-- Decorative stars -->
  <g fill="#FFFFFF" opacity="0.2">
    <circle cx="50" cy="200" r="5" />
    <circle cx="350" cy="200" r="5" />
    <circle cx="200" cy="50" r="5" />
    <circle cx="200" cy="350" r="5" />
  </g>
  
  <!-- Subtle grid pattern -->
  <g stroke="#FFFFFF" stroke-width="0.5" opacity="0.05">
    <line x1="0" y1="100" x2="400" y2="100" />
    <line x1="0" y1="200" x2="400" y2="200" />
    <line x1="0" y1="300" x2="400" y2="300" />
    <line x1="100" y1="0" x2="100" y2="400" />
    <line x1="200" y1="0" x2="200" y2="400" />
    <line x1="300" y1="0" x2="300" y2="400" />
  </g>
</svg>