<svg width="400" height="300" viewBox="0 0 400 300" fill="none" xmlns="http://www.w3.org/2000/svg">
  <defs>
    <linearGradient id="researchGradient" x1="0%" y1="0%" x2="100%" y2="100%">
      <stop offset="0%" style="stop-color:#059669;stop-opacity:1" />
      <stop offset="50%" style="stop-color:#10b981;stop-opacity:1" />
      <stop offset="100%" style="stop-color:#34d399;stop-opacity:1" />
    </linearGradient>
  </defs>
  
  <!-- Background -->
  <rect width="400" height="300" fill="url(#researchGradient)"/>
  
  <!-- Laboratory equipment silhouettes -->
  <g transform="translate(50,80)" fill="white" opacity="0.2">
    <!-- Microscope -->
    <rect x="0" y="80" width="40" height="60" rx="5"/>
    <circle cx="20" cy="70" r="15"/>
    <rect x="15" y="40" width="10" height="30"/>
    <circle cx="20" cy="35" r="8"/>
  </g>
  
  <g transform="translate(150,100)" fill="white" opacity="0.2">
    <!-- Beakers -->
    <rect x="0" y="40" width="20" height="40" rx="2"/>
    <rect x="30" y="30" width="25" height="50" rx="3"/>
    <rect x="65" y="35" width="22" height="45" rx="2"/>
  </g>
  
  <g transform="translate(280,90)" fill="white" opacity="0.2">
    <!-- Computer/Monitor -->
    <rect x="0" y="20" width="60" height="40" rx="3"/>
    <rect x="25" y="60" width="10" height="15"/>
    <rect x="15" y="75" width="30" height="5" rx="2"/>
  </g>
  
  <!-- Abstract data visualization -->
  <g transform="translate(100,180)" stroke="white" stroke-width="2" fill="none" opacity="0.15">
    <path d="M0,40 L20,30 L40,35 L60,20 L80,25 L100,15 L120,20 L140,10 L160,15 L180,5"/>
    <circle cx="40" cy="35" r="3" fill="white"/>
    <circle cx="100" cy="15" r="3" fill="white"/>
    <circle cx="160" cy="15" r="3" fill="white"/>
  </g>
  
  <!-- Research icons -->
  <g transform="translate(200,50)" fill="white" opacity="0.1">
    <circle cx="0" cy="0" r="25"/>
    <path d="M-10,-10 L10,10 M-10,10 L10,-10" stroke="white" stroke-width="3" opacity="0.3"/>
  </g>
</svg>